<svg width="30" height="30" viewBox="0 0 30 30" fill="none" xmlns="http://www.w3.org/2000/svg">
<g clip-path="url(#clip0_306_549)">
<path d="M29.9935 0.714588C30.0221 0.519591 29.9559 0.323345 29.8172 0.183348C29.6783 0.0433498 29.4808 -0.022899 29.2858 0.00710043C21.1481 1.17958 21.1131 1.18958 21.0544 1.20708C20.8242 1.27583 20.6194 1.40957 20.4618 1.58957L9.26882 15.0256C9.15881 15.1581 8.9613 15.1768 8.82879 15.0656C8.82129 15.0593 8.81379 15.0531 8.80754 15.0468L6.13493 12.3744C5.41491 11.6294 4.22861 11.6094 3.48358 12.3281C2.73854 13.0469 2.71855 14.2343 3.43733 14.9793C3.45233 14.9943 3.46733 15.0106 3.48358 15.0256L14.9753 26.5154C15.6866 27.2679 16.8741 27.3004 17.6266 26.5879C18.3792 25.8766 18.4117 24.6891 17.6991 23.9366C17.6755 23.9116 17.6504 23.8867 17.6254 23.8629L14.9528 21.1916C14.8303 21.0692 14.8303 20.8717 14.9528 20.7492C14.959 20.7431 14.9665 20.7355 14.974 20.7305L28.4271 9.52569C28.6209 9.34818 28.7559 9.11444 28.8134 8.85694L29.9935 0.714588ZM25.0394 4.96451C25.4045 5.33075 25.4045 5.92325 25.0394 6.28948L12.9852 18.3418C12.7414 18.5855 12.3452 18.5855 12.1014 18.3418L11.6602 17.9005C11.4151 17.6568 11.4151 17.2605 11.6589 17.0168L23.7131 4.96327C24.0794 4.59702 24.6732 4.59828 25.0394 4.96451ZM0.732218 25.7317C-0.244073 26.7079 -0.244073 28.2916 0.732218 29.2678C1.70851 30.2441 3.29232 30.2441 4.26861 29.2678L9.04631 24.4904C9.29006 24.2467 9.29006 23.8504 9.04631 23.6066L6.39494 20.9555C6.15118 20.7116 5.75492 20.7116 5.51116 20.9555L0.732218 25.7317Z" fill="black"/>
</g>
<defs>
<clipPath id="clip0_306_549">
<rect width="30" height="30" fill="white"/>
</clipPath>
</defs>
</svg>
